<svg height="512pt" viewBox="0 0 512 511" width="512pt" xmlns="http://www.w3.org/2000/svg"><path d="m377 208.929688-47 23.5v-153.929688h-.125c.074219-.996094.125-1.992188.125-3 0-22.574219-18.949219-42.589844-53.363281-56.355469-30.0625-12.023437-69.707031-18.644531-111.636719-18.644531s-81.574219 6.621094-111.636719 18.644531c-34.414062 13.765625-53.363281 33.78125-53.363281 56.355469v270c0 22.574219 18.949219 42.589844 53.363281 56.355469 30.0625 12.023437 69.707031 18.644531 111.636719 18.644531 37.507812 0 73.03125-5.265625 101.613281-14.953125 3.074219 6.128906 6.421875 12.136719 10.046875 18.003906 22.675782 36.6875 55.054688 66.277344 93.632813 85.566407l6.707031 3.355468 6.707031-3.355468c38.578125-19.289063 70.957031-48.878907 93.632813-85.566407 22.675781-36.691406 34.660156-78.882812 34.660156-122.015625v-25.105468zm-312.496094-161.929688c26.601563-10.640625 62.292969-16.5 100.496094-16.5s73.894531 5.859375 100.496094 16.5c20.960937 8.386719 34.503906 19.570312 34.503906 28.5s-13.542969 20.113281-34.503906 28.5c-26.601563 10.640625-62.292969 16.5-100.496094 16.5s-73.894531-5.859375-100.496094-16.5c-20.960937-8.386719-34.503906-19.570312-34.503906-28.5s13.542969-20.113281 34.503906-28.5zm-34.503906 73.085938c6.734375 4.292968 14.535156 8.238281 23.363281 11.769531 30.0625 12.023437 69.707031 18.644531 111.636719 18.644531s81.574219-6.621094 111.636719-18.644531c8.828125-3.53125 16.628906-7.476563 23.363281-11.769531v45.414062c0 8.929688-13.542969 20.113281-34.503906 28.5-26.601563 10.640625-62.292969 16.5-100.496094 16.5s-73.894531-5.859375-100.496094-16.5c-20.960937-8.386719-34.503906-19.570312-34.503906-28.5zm0 90c6.734375 4.292968 14.535156 8.238281 23.363281 11.769531 30.0625 12.023437 69.707031 18.644531 111.636719 18.644531s81.574219-6.621094 111.636719-18.644531c8.828125-3.53125 16.628906-7.476563 23.363281-11.769531v37.34375l-58 29v15.117187c-22.859375 5.867187-49.265625 8.953125-77 8.953125-38.203125 0-73.894531-5.859375-100.496094-16.5-20.960937-8.386719-34.503906-19.570312-34.503906-28.5zm135 180.414062c-38.203125 0-73.894531-5.859375-100.496094-16.5-20.960937-8.386719-34.503906-19.570312-34.503906-28.5v-45.414062c6.734375 4.292968 14.535156 8.238281 23.363281 11.769531 30.0625 12.023437 69.707031 18.644531 111.636719 18.644531 27.632812 0 54.222656-2.855469 77.921875-8.304688 1.695313 19.003907 5.726563 37.675782 11.972656 55.617188-25.042969 8.121094-56.992187 12.6875-89.894531 12.6875zm317-88.964844c0 74.507813-40.03125 141.738282-105 177.238282-64.96875-35.5-105-102.730469-105-177.238282v-6.566406l105-52.5 105 52.5zm0 0"/><path d="m302.070312 313.46875 1.371094 10.578125c5.832032 44.929687 28.671875 85.015625 64.324219 112.867187l9.234375 7.214844 9.234375-7.214844c35.648437-27.851562 58.492187-67.9375 64.320313-112.867187l1.371093-10.578125-74.925781-37.464844zm74.929688 91.941406c-21.546875-19.988281-36.152344-45.957031-42.070312-74.828125l42.070312-21.035156 42.070312 21.03125c-5.917968 28.875-20.523437 54.84375-42.070312 74.832031zm0 0"/></svg>