<svg height="512" viewBox="0 0 512 512" width="512" xmlns="http://www.w3.org/2000/svg"><g><path d="m464 96h-360a8 8 0 0 0 -8 8v40a8 8 0 0 0 8 8h192v32h-104a8 8 0 0 0 -8 8v40h-152a24.032 24.032 0 0 0 -24 24v136a24.032 24.032 0 0 0 24 24h320a24.032 24.032 0 0 0 24-24v-136a24.032 24.032 0 0 0 -24-24h-152v-32h104a8 8 0 0 0 8-8v-48a8 8 0 0 0 -8-8h-192v-24h352a8 8 0 0 0 0-16zm-112 152a8.011 8.011 0 0 1 8 8v136a8.011 8.011 0 0 1 -8 8h-320a8.011 8.011 0 0 1 -8-8v-136a8.011 8.011 0 0 1 8-8z"/><path d="m248 352h-112a8 8 0 0 0 -8 8v24a8 8 0 0 0 8 8h112a8 8 0 0 0 8-8v-24a8 8 0 0 0 -8-8zm-8 24h-96v-8h96z"/><path d="m144 312v24a8 8 0 0 0 8 8h24a8 8 0 0 0 8-8v-24a8 8 0 0 0 -8-8h-24a8 8 0 0 0 -8 8zm16 8h8v8h-8z"/><path d="m200 312v24a8 8 0 0 0 8 8h24a8 8 0 0 0 8-8v-24a8 8 0 0 0 -8-8h-24a8 8 0 0 0 -8 8zm16 8h8v8h-8z"/><path d="m40 344h24a8 8 0 0 0 8-8v-24a8 8 0 0 0 -8-8h-24a8 8 0 0 0 -8 8v24a8 8 0 0 0 8 8zm8-24h8v8h-8z"/><path d="m128 312a8 8 0 0 0 -8-8h-24a8 8 0 0 0 -8 8v24a8 8 0 0 0 8 8h24a8 8 0 0 0 8-8zm-16 16h-8v-8h8z"/><path d="m296 336v-24a8 8 0 0 0 -8-8h-24a8 8 0 0 0 -8 8v24a8 8 0 0 0 8 8h24a8 8 0 0 0 8-8zm-16-8h-8v-8h8z"/><path d="m344 304h-24a8 8 0 0 0 -8 8v24a8 8 0 0 0 8 8h24a8 8 0 0 0 8-8v-24a8 8 0 0 0 -8-8zm-8 24h-8v-8h8z"/><path d="m184 296h24a8 8 0 0 0 8-8v-24a8 8 0 0 0 -8-8h-24a8 8 0 0 0 -8 8v24a8 8 0 0 0 8 8zm8-24h8v8h-8z"/><path d="m240 296h24a8 8 0 0 0 8-8v-24a8 8 0 0 0 -8-8h-24a8 8 0 0 0 -8 8v24a8 8 0 0 0 8 8zm8-24h8v8h-8z"/><path d="m72 296h24a8 8 0 0 0 8-8v-24a8 8 0 0 0 -8-8h-24a8 8 0 0 0 -8 8v24a8 8 0 0 0 8 8zm8-24h8v8h-8z"/><path d="m128 296h24a8 8 0 0 0 8-8v-24a8 8 0 0 0 -8-8h-24a8 8 0 0 0 -8 8v24a8 8 0 0 0 8 8zm8-24h8v8h-8z"/><path d="m296 296h24a8 8 0 0 0 8-8v-24a8 8 0 0 0 -8-8h-24a8 8 0 0 0 -8 8v24a8 8 0 0 0 8 8zm8-24h8v8h-8z"/><path d="m96 368h-56a8 8 0 0 0 0 16h56a8 8 0 0 0 0-16z"/><path d="m344 368h-56a8 8 0 0 0 0 16h56a8 8 0 0 0 0-16z"/><path d="m448 240a56.063 56.063 0 0 0 -56 56v64a56 56 0 0 0 112 0v-64a56.063 56.063 0 0 0 -56-56zm0 160a40.045 40.045 0 0 1 -40-40v-32h80v32a40.045 40.045 0 0 1 -40 40zm40-88h-80v-16a40 40 0 0 1 80 0z"/><path d="m448 264a8 8 0 0 0 -8 8v24a8 8 0 0 0 16 0v-24a8 8 0 0 0 -8-8z"/><path d="m488 112h8a8 8 0 0 0 0-16h-8a8 8 0 0 0 0 16z"/></g></svg>