<?xml version="1.0" encoding="iso-8859-1"?>
<!-- Generator: Adobe Illustrator 19.0.0, SVG Export Plug-In . SVG Version: 6.00 Build 0)  -->
<svg version="1.1" id="Capa_1" xmlns="http://www.w3.org/2000/svg" xmlns:xlink="http://www.w3.org/1999/xlink" x="0px" y="0px"
	 viewBox="0 0 512 512" style="enable-background:new 0 0 512 512;" xml:space="preserve">
<g>
	<g>
		<path d="M424.77,482V174.46h-67.508v69.559h-67.508V174.46H271V70.252h77.003V0H271h-15h-15v174.46h-18.754v69.559h-67.508V174.46
			H87.23V482H0v30h512v-30H424.77z M324.501,482h-30v-58.9c0-21.229-17.271-38.501-38.501-38.501
			c-21.23,0-38.501,17.271-38.501,38.501V482h-30v-58.9c0-37.771,30.729-68.501,68.501-68.501c37.771,0,68.501,30.729,68.501,68.501
			V482z"/>
	</g>
</g>
<g>
</g>
<g>
</g>
<g>
</g>
<g>
</g>
<g>
</g>
<g>
</g>
<g>
</g>
<g>
</g>
<g>
</g>
<g>
</g>
<g>
</g>
<g>
</g>
<g>
</g>
<g>
</g>
<g>
</g>
</svg>
