<svg id="Capa_1" enable-background="new 0 0 512 512" height="512" viewBox="0 0 512 512" width="512" xmlns="http://www.w3.org/2000/svg"><g><path d="m104.343 242.553c4.62-2.438 9.581-4.592 14.626-6.463v-17.32c0-4.139 3.345-7.512 7.483-7.512 4.139 0 7.512 3.373 7.512 7.512v12.558c14.882-3.997 29.169-5.896 37.446-6.236 3.26-.085 6.605-.028 9.893-.028v-6.293c0-4.139 3.345-7.512 7.483-7.512 4.167 0 7.512 3.373 7.512 7.512v6.293h14.599v-18.396c0-6.577-2.693-12.558-7.03-16.924-4.337-4.337-10.318-7.029-16.895-7.029h-10.176c-5.726 3.061-12.246 4.818-19.163 4.818-6.916 0-13.464-1.757-19.19-4.818h-10.148c-6.576 0-12.558 2.692-16.895 7.029-4.365 4.338-7.058 10.347-7.058 16.924v35.885zm121.55-17.49h14.627v-6.293c0-4.139 3.345-7.512 7.483-7.512 4.167 0 7.512 3.373 7.512 7.512v6.293h47.339v-6.293c0-4.139 3.345-7.512 7.512-7.512 4.139 0 7.483 3.373 7.483 7.512v7.908c5.301 1.475 10.233 3.855 14.627 6.974v-26.985c0-6.577-2.722-12.558-7.059-16.924-4.337-4.337-10.318-7.029-16.895-7.029h-10.176c-5.726 3.061-12.246 4.818-19.162 4.818s-13.436-1.757-19.162-4.818h-10.176c-6.577 0-12.558 2.692-16.895 7.029-4.337 4.338-7.059 10.347-7.059 16.924v18.396zm121.578 26.476c2.835 5.981 4.45 12.671 4.45 19.73 0 7.086-1.644 13.861-4.592 19.983 4.762-2.381 9.864-4.479 14.74-6.633v-65.849c0-4.139 3.345-7.512 7.512-7.512 4.138 0 7.483 3.373 7.483 7.512v59.131l47.338-21.118v-38.013c0-4.139 3.374-7.512 7.512-7.512 4.139 0 7.484 3.373 7.484 7.512v31.322l7.937-3.543c2.183-.964 4.422-1.758 6.69-2.381v-37.502c0-6.577-2.693-12.558-7.058-16.924-4.337-4.337-10.318-7.029-16.895-7.029h-10.148c-5.726 3.061-12.274 4.818-19.191 4.818s-13.436-1.757-19.162-4.818h-10.176c-6.577 0-12.558 2.692-16.895 7.029-4.337 4.338-7.03 10.347-7.03 16.924v44.873zm121.549-8.93c4.677.312 9.27 1.305 13.607 2.977 11.027 4.224 20.438 12.643 25.654 24.293 4.96 11.141 4.677 22.11.822 32.202-4.167 10.856-12.501 20.522-22.819 27.977l-40.507 29.311c-3.345 2.438-8.022 1.7-10.46-1.673-2.41-3.345-1.673-8.022 1.672-10.46l40.507-29.309c8.079-5.84 14.542-13.182 17.603-21.176 2.495-6.548 2.693-13.634-.481-20.777-3.515-7.852-9.865-13.55-17.32-16.385-7.483-2.862-16.016-2.891-23.868.624l-98.277 43.853c-5.471 2.749-10.913 5.358-16.838 7.426-5.924 2.041-13.351 3.742-19.644 3.742h-109.815c-4.139 0-7.483-3.345-7.483-7.483s3.345-7.512 7.483-7.512h108.51c5.669-2.296 10.432-6.151 13.833-10.999 3.628-5.13 5.726-11.366 5.726-17.971 0-8.562-3.515-16.385-9.185-22.025-5.669-5.67-13.464-9.185-22.053-9.185h-133.794c-10.261 0-26.164 3.486-36.028 6.293-9.921 2.778-20.041 6.604-28.403 11.65 3.118 5.697 4.904 12.245 4.904 19.19v28.63c0 4.139-3.345 7.512-7.483 7.512-4.139 0-7.512-3.373-7.512-7.512v-28.63c0-13.322-10.573-24.718-24.151-24.718h-34.074c-13.521 0-24.151 11.339-24.151 24.718v92.381c0 6.832 2.75 13.012 7.143 17.49 4.366 4.45 10.375 7.228 17.008 7.228h34.072c6.633 0 12.671-2.778 17.036-7.228 4.564-4.648 7.115-10.941 7.115-17.49v-28.658c0-4.139 3.373-7.483 7.512-7.483s7.483 3.345 7.483 7.483v28.658c0 4.961-.907 9.723-2.58 14.117 3.94 2.777 7.994 5.272 12.189 7.314 5.754 2.777 11.679 4.705 17.688 5.243l159.081 14.57c22.819 2.126 44.702 4.139 69.335-13.691l40.507-29.31c3.345-2.41 8.022-1.673 10.46 1.672 2.41 3.345 1.672 8.022-1.672 10.46l-40.507 29.311c-29.168 21.118-53.773 18.822-79.483 16.44l-159.051-14.569c-7.994-.709-15.647-3.147-22.847-6.662-4.734-2.268-9.241-4.988-13.55-7.993-7.398 8.107-17.716 12.812-28.715 12.812h-34.073c-10.772 0-20.58-4.507-27.666-11.735-7.086-7.2-11.48-17.093-11.48-27.979v-92.381c0-21.6 17.404-39.713 39.146-39.713h34.072c5.754 0 11.197 1.275 16.129 3.543v-34.355c0-10.716 4.394-20.467 11.424-27.525 5.868-5.839 13.55-9.864 22.11-11.055-3.855-6.236-6.095-13.578-6.095-21.401v-24.946-10.771c0-7.2 2.948-13.748 7.682-18.481 4.734-4.734 11.282-7.683 18.482-7.683h48.018c4.139 0 7.483 3.374 7.483 7.513v29.423 24.945c0 7.823-2.211 15.165-6.094 21.401 8.589 1.19 16.271 5.216 22.11 11.055 1.417 1.418 2.75 2.977 3.94 4.593 1.19-1.616 2.495-3.175 3.94-4.593 5.839-5.839 13.521-9.864 22.082-11.055-3.855-6.236-6.094-13.578-6.094-21.401v-35.717c0-7.2 2.948-13.748 7.682-18.481 4.734-4.734 11.282-7.683 18.482-7.683h29.367c7.2 0 13.748 2.948 18.482 7.683 4.733 4.733 7.682 11.281 7.682 18.481v35.717c0 7.823-2.239 15.165-6.095 21.401 8.561 1.19 16.243 5.216 22.082 11.055 1.446 1.418 2.749 2.977 3.94 4.593 1.19-1.616 2.522-3.175 3.94-4.593 5.839-5.839 13.522-9.864 22.11-11.055-3.883-6.236-6.095-13.578-6.095-21.401v-35.717c0-7.2 2.92-13.748 7.682-18.481 4.734-4.734 11.253-7.683 18.454-7.683h29.367c7.2 0 13.748 2.948 18.482 7.683 4.734 4.733 7.682 11.281 7.682 18.481v35.717c0 7.823-2.24 15.165-6.095 21.401 8.561 1.19 16.243 5.216 22.11 11.055 7.03 7.059 11.423 16.81 11.423 27.525v35.942zm-42.435-104.371-31.436-10.63-20.239 9.921v9.156c0 7.087 2.891 13.55 7.597 18.227 4.677 4.706 11.14 7.597 18.227 7.597 7.115 0 13.55-2.891 18.255-7.597 4.677-4.677 7.597-11.14 7.597-18.227v-8.447zm-51.675-17.348 16.016-7.851c1.786-1.021 4.025-1.304 6.123-.596l29.537 10.007v-11.48c0-3.062-1.275-5.839-3.288-7.88-2.041-2.013-4.819-3.289-7.88-3.289h-29.368c-3.033 0-5.839 1.276-7.852 3.289-2.041 2.041-3.288 4.818-3.288 7.88zm-243.128-6.662h51.676v-14.428h-40.507c-3.062 0-5.84 1.276-7.88 3.289-2.013 2.041-3.289 4.818-3.289 7.88zm51.676 14.996h-51.676v17.462c0 7.087 2.92 13.55 7.597 18.227 4.706 4.706 11.14 7.597 18.255 7.597 7.087 0 13.55-2.891 18.227-7.597 4.706-4.677 7.597-11.14 7.597-18.227zm121.55 8.816c-9.015 1.049-22.621.425-34.214-9.355-4.139 2.268-10.176 4.592-17.433 4.309v13.691c0 7.087 2.892 13.55 7.597 18.227 4.677 4.706 11.141 7.597 18.227 7.597s13.549-2.891 18.227-7.597c4.706-4.677 7.597-11.14 7.597-18.227v-8.645zm-51.648-20.013c4.762.368 9.865-1.446 13.408-4.593 3.118-2.721 7.852-2.381 10.545.737 8.844 10.177 20.977 9.95 27.695 8.815v-12.019c0-3.062-1.247-5.839-3.26-7.88-2.041-2.013-4.819-3.289-7.881-3.289h-29.367c-3.061 0-5.839 1.276-7.88 3.289-2.013 2.041-3.26 4.818-3.26 7.88z"/></g></svg>